<svg id="Layer_1" data-name="Layer 1" xmlns="http://www.w3.org/2000/svg" viewBox="0 0 1000 1000"><defs><style>.cls-1{fill:#d81f26;}</style></defs><path class="cls-1" d="M234.44,586.23c-11,1.94-22.24,2.52-33.84,4.06L165.22,486.66V594.74c-11,1.16-21.08,2.71-31.52,4.25V401h29.39l40.22,112.33V401h31.13Zm60.9-112.72c12,0,30.36-.58,41.38-.58v30.94c-13.73,0-29.78,0-41.38.58v46c18.18-1.16,36.35-2.7,54.72-3.28V577l-85.65,6.77V401h85.65v30.93H295.34ZM465.1,431.94H433V574.25c-10.45,0-20.89,0-30.94.38V431.94H370V401H465.1Zm50.27,39.45h42.34v30.93H515.37v70.19H485V401h86.43v30.93H515.37Zm106.34,74.05c17.6.38,35.38,1.74,52.59,2.7v30.55c-27.65-1.74-55.3-3.48-83.52-4.06V401h30.93Zm78.69,35.38c9.86.58,20.3,1.16,30.36,2.32V401H700.4ZM866.3,401l-39.25,94.16L866.3,599c-11.61-1.54-23.21-3.67-34.81-5.6l-22.23-57.23-22.62,52.59c-11.22-1.94-22-2.52-33.26-4.06L793.21,494l-36-93H790.5l20.3,52,21.66-52Z"/></svg>